<svg width="104" height="104" viewBox="0 0 104 104" fill="none" xmlns="http://www.w3.org/2000/svg">
<path d="M52.1353 0.837891C41.9896 0.837891 32.0718 3.84643 23.636 9.48305C15.2002 15.1197 8.62527 23.1312 4.74269 32.5046C0.860117 41.878 -0.155742 52.1921 1.82358 62.1429C3.8029 72.0936 8.6885 81.2339 15.8626 88.4079C23.0366 95.582 32.1769 100.468 42.1276 102.447C52.0784 104.426 62.3925 103.41 71.7659 99.5278C81.1393 95.6452 89.1508 89.0703 94.7874 80.6345C100.424 72.1987 103.433 62.2809 103.433 52.1352C103.418 38.5347 98.0091 25.4954 88.3921 15.8784C78.7751 6.26139 65.7357 0.852253 52.1353 0.837891ZM52.1353 95.5407C43.5505 95.5407 35.1585 92.995 28.0205 88.2255C20.8825 83.4561 15.3191 76.6771 12.0339 68.7458C8.7486 60.8145 7.88903 52.0871 9.56384 43.6673C11.2386 35.2474 15.3726 27.5133 21.443 21.443C27.5133 15.3726 35.2474 11.2386 43.6673 9.56381C52.0871 7.889 60.8145 8.74858 68.7458 12.0338C76.6771 15.3191 83.4561 20.8825 88.2256 28.0205C92.995 35.1584 95.5407 43.5504 95.5407 52.1352C95.5276 63.6431 90.9504 74.6758 82.8131 82.8131C74.6758 90.9504 63.6431 95.5276 52.1353 95.5407ZM83.7029 52.1352C83.7029 53.1818 83.2871 54.1854 82.5471 54.9254C81.8071 55.6655 80.8034 56.0812 79.7569 56.0812H52.1353C51.0887 56.0812 50.0851 55.6655 49.3451 54.9254C48.605 54.1854 48.1893 53.1818 48.1893 52.1352V24.5136C48.1893 23.4671 48.605 22.4634 49.3451 21.7234C50.0851 20.9834 51.0887 20.5676 52.1353 20.5676C53.1818 20.5676 54.1855 20.9834 54.9255 21.7234C55.6655 22.4634 56.0812 23.4671 56.0812 24.5136V48.1893H79.7569C80.8034 48.1893 81.8071 48.605 82.5471 49.345C83.2871 50.085 83.7029 51.0887 83.7029 52.1352Z" fill="#DB7267"/>
</svg>
