<svg width="31" height="31" viewBox="0 0 31 31" fill="none" xmlns="http://www.w3.org/2000/svg">
<path fill-rule="evenodd" clip-rule="evenodd" d="M10.6734 1.43351C13.8481 0.688829 17.152 0.688829 20.3267 1.43351C24.9114 2.50893 28.4912 6.08869 29.5666 10.6734C30.3113 13.8481 30.3113 17.152 29.5666 20.3267C28.4912 24.9114 24.9114 28.4912 20.3267 29.5666C17.152 30.3113 13.8481 30.3113 10.6734 29.5666C6.08869 28.4912 2.50894 24.9114 1.43351 20.3267C0.688829 17.152 0.688829 13.8481 1.43351 10.6734C2.50894 6.08869 6.08869 2.50893 10.6734 1.43351ZM15.9482 10.8332C15.9482 10.2947 15.5117 9.85822 14.9732 9.85822C14.4348 9.85822 13.9982 10.2947 13.9982 10.8332V16.5794C13.9982 16.9128 14.1686 17.2231 14.4498 17.402L18.8655 20.2116C19.3199 20.5007 19.9225 20.3667 20.2115 19.9124C20.5006 19.4581 20.3666 18.8554 19.9123 18.5664L15.9482 16.0442V10.8332Z" fill="#20422A"/>
</svg>
