<svg width="111" height="80" viewBox="0 0 111 80" fill="none" xmlns="http://www.w3.org/2000/svg">
<path d="M102.742 0.675659H8.03934C5.94628 0.675659 3.93895 1.50712 2.45894 2.98714C0.978924 4.46715 0.147461 6.47448 0.147461 8.56753V71.7025C0.147461 73.7956 0.978924 75.8029 2.45894 77.2829C3.93895 78.7629 5.94628 79.5944 8.03934 79.5944H102.742C104.835 79.5944 106.842 78.7629 108.322 77.2829C109.802 75.8029 110.634 73.7956 110.634 71.7025V8.56753C110.634 6.47448 109.802 4.46715 108.322 2.98714C106.842 1.50712 104.835 0.675659 102.742 0.675659ZM102.742 8.56753V20.4053H8.03934V8.56753H102.742ZM102.742 71.7025H8.03934V28.2972H102.742V71.7025ZM94.85 59.8647C94.85 60.9112 94.4342 61.9149 93.6942 62.6549C92.9542 63.3949 91.9505 63.8107 90.904 63.8107H75.1203C74.0737 63.8107 73.0701 63.3949 72.3301 62.6549C71.5901 61.9149 71.1743 60.9112 71.1743 59.8647C71.1743 58.8182 71.5901 57.8145 72.3301 57.0745C73.0701 56.3345 74.0737 55.9188 75.1203 55.9188H90.904C91.9505 55.9188 92.9542 56.3345 93.6942 57.0745C94.4342 57.8145 94.85 58.8182 94.85 59.8647ZM63.2825 59.8647C63.2825 60.9112 62.8667 61.9149 62.1267 62.6549C61.3867 63.3949 60.383 63.8107 59.3365 63.8107H51.4446C50.3981 63.8107 49.3945 63.3949 48.6544 62.6549C47.9144 61.9149 47.4987 60.9112 47.4987 59.8647C47.4987 58.8182 47.9144 57.8145 48.6544 57.0745C49.3945 56.3345 50.3981 55.9188 51.4446 55.9188H59.3365C60.383 55.9188 61.3867 56.3345 62.1267 57.0745C62.8667 57.8145 63.2825 58.8182 63.2825 59.8647Z" fill="#DB7267"/>
</svg>
