<svg width="27" height="31" viewBox="0 0 27 31" fill="none" xmlns="http://www.w3.org/2000/svg">
<path fill-rule="evenodd" clip-rule="evenodd" d="M13.5 0.875C6.29763 0.875 0.5 6.89225 0.5 14.2632C0.5 17.9225 1.92722 21.8427 4.21064 24.8551C6.48882 27.8606 9.75335 30.125 13.5 30.125C17.2466 30.125 20.5112 27.8606 22.7894 24.8551C25.0728 21.8427 26.5 17.9225 26.5 14.2632C26.5 6.89225 20.7024 0.875 13.5 0.875ZM8.89429 13.25C8.89429 10.6819 10.9563 8.6 13.5 8.6C16.0437 8.6 18.1057 10.6819 18.1057 13.25C18.1057 15.8181 16.0437 17.9 13.5 17.9C10.9563 17.9 8.89429 15.8181 8.89429 13.25ZM13.5 10.4C11.941 10.4 10.6771 11.676 10.6771 13.25C10.6771 14.824 11.941 16.1 13.5 16.1C15.059 16.1 16.3229 14.824 16.3229 13.25C16.3229 11.676 15.059 10.4 13.5 10.4Z" fill="#20422A"/>
</svg>
