<svg width="31" height="31" viewBox="0 0 31 31" fill="none" xmlns="http://www.w3.org/2000/svg">
<path fill-rule="evenodd" clip-rule="evenodd" d="M20.3267 1.43351C17.152 0.688829 13.848 0.68883 10.6733 1.43351C6.08868 2.50893 2.50893 6.08867 1.43351 10.6733C0.688829 13.848 0.688829 17.152 1.43351 20.3267C2.50893 24.9113 6.08868 28.4911 10.6733 29.5665C13.848 30.3112 17.152 30.3112 20.3267 29.5665C24.9113 28.4911 28.4911 24.9113 29.5665 20.3267C30.3112 17.152 30.3112 13.848 29.5665 10.6733C28.4911 6.08868 24.9113 2.50893 20.3267 1.43351ZM13.5909 9.63117C13.8252 9.86548 13.8252 10.2454 13.5909 10.4797L10.4797 13.5909C10.2454 13.8252 9.86548 13.8252 9.63117 13.5909L8.07558 12.0353C7.84126 11.801 7.84126 11.4211 8.07558 11.1868C8.30989 10.9524 8.68979 10.9524 8.92411 11.1868L10.0554 12.3181L12.7423 9.63117C12.9767 9.39685 13.3566 9.39685 13.5909 9.63117ZM16.4556 12.3888C16.4556 12.0574 16.7242 11.7888 17.0556 11.7888H22.5002C22.8315 11.7888 23.1002 12.0574 23.1002 12.3888C23.1002 12.7202 22.8315 12.9888 22.5002 12.9888H17.0556C16.7242 12.9888 16.4556 12.7202 16.4556 12.3888ZM13.5909 17.4091C13.8252 17.6434 13.8252 18.0233 13.5909 18.2577L10.4797 21.3688C10.2454 21.6031 9.86548 21.6031 9.63117 21.3688L8.07558 19.8132C7.84126 19.5789 7.84126 19.199 8.07558 18.9647C8.30989 18.7304 8.68979 18.7304 8.92411 18.9647L10.0554 20.096L12.7423 17.4091C12.9767 17.1748 13.3566 17.1748 13.5909 17.4091ZM16.4556 20.1668C16.4556 19.8354 16.7242 19.5668 17.0556 19.5668H22.5002C22.8315 19.5668 23.1002 19.8354 23.1002 20.1668C23.1002 20.4981 22.8315 20.7668 22.5002 20.7668H17.0556C16.7242 20.7668 16.4556 20.4981 16.4556 20.1668Z" fill="#20422A"/>
</svg>
