<svg width="104" height="96" viewBox="0 0 104 96" fill="none" xmlns="http://www.w3.org/2000/svg">
<path d="M103.486 48.135C103.487 60.5839 98.5858 72.5324 89.8428 81.3944C81.0999 90.2565 69.2187 95.319 56.771 95.4863H56.1347C44.0416 95.5164 32.4013 90.8886 23.6301 82.5633C23.2534 82.2071 22.9506 81.7801 22.739 81.3068C22.5273 80.8336 22.4109 80.3232 22.3965 79.805C22.3821 79.2867 22.4699 78.7707 22.6549 78.2864C22.8399 77.8021 23.1184 77.3589 23.4747 76.9823C23.8309 76.6056 24.2579 76.3028 24.7312 76.0912C25.2045 75.8795 25.7148 75.7632 26.233 75.7487C26.7513 75.7343 27.2673 75.8221 27.7516 76.0071C28.2359 76.1921 28.6791 76.4707 29.0557 76.8269C34.6974 82.1475 41.7818 85.6877 49.4238 87.0054C57.0659 88.3231 64.9267 87.3598 72.0245 84.2359C79.1222 81.1119 85.1422 75.9658 89.3322 69.4405C93.5223 62.9151 95.6967 55.2998 95.5839 47.5458C95.4711 39.7918 93.076 32.243 88.6979 25.8423C84.3198 19.4416 78.1527 14.4728 70.967 11.5567C63.7814 8.64055 55.8958 7.90636 48.2954 9.44582C40.6949 10.9853 33.7165 14.7301 28.232 20.2126C28.1917 20.2562 28.1489 20.2973 28.1038 20.3359L14.9934 32.3513H28.5132C29.5597 32.3513 30.5634 32.767 31.3034 33.507C32.0434 34.247 32.4591 35.2507 32.4591 36.2972C32.4591 37.3437 32.0434 38.3474 31.3034 39.0874C30.5634 39.8274 29.5597 40.2431 28.5132 40.2431H4.83754C3.79101 40.2431 2.78735 39.8274 2.04734 39.0874C1.30733 38.3474 0.891602 37.3437 0.891602 36.2972V12.6216C0.891602 11.5751 1.30733 10.5714 2.04734 9.83138C2.78735 9.09138 3.79101 8.67564 4.83754 8.67564C5.88407 8.67564 6.88773 9.09138 7.62774 9.83138C8.36774 10.5714 8.78348 11.5751 8.78348 12.6216V27.3202L22.7176 14.5945C29.3466 7.99122 37.7835 3.49989 46.963 1.68754C56.1426 -0.124814 65.6533 0.823059 74.2946 4.4115C82.9359 7.99994 90.3203 14.0681 95.5157 21.8499C100.711 29.6317 103.485 38.7783 103.486 48.135Z" fill="#DB7267"/>
</svg>
