<svg width="72" height="104" viewBox="0 0 72 104" fill="none" xmlns="http://www.w3.org/2000/svg">
<path d="M71.648 26.3088V8.72964C71.648 6.63659 70.8165 4.62926 69.3365 3.14924C67.8565 1.66923 65.8492 0.837769 63.7561 0.837769H8.51297C6.41991 0.837769 4.41258 1.66923 2.93257 3.14924C1.45256 4.62926 0.621094 6.63659 0.621094 8.72964V26.4864C0.62376 27.7111 0.910183 28.9185 1.45789 30.0139C2.00559 31.1093 2.79968 32.0629 3.77784 32.7999L29.5596 52.135L3.77784 71.47C2.79968 72.207 2.00559 73.1606 1.45789 74.256C0.910183 75.3514 0.62376 76.5588 0.621094 77.7835V95.5403C0.621094 97.6333 1.45256 99.6406 2.93257 101.121C4.41258 102.601 6.41991 103.432 8.51297 103.432H63.7561C65.8492 103.432 67.8565 102.601 69.3365 101.121C70.8165 99.6406 71.648 97.6333 71.648 95.5403V77.9611C71.6448 76.7419 71.3605 75.5398 70.8173 74.4483C70.2741 73.3567 69.4866 72.4051 68.5159 71.6673L42.6799 52.135L68.5159 32.6026C69.4874 31.8656 70.2756 30.9141 70.8189 29.8224C71.3622 28.7307 71.6459 27.5282 71.648 26.3088ZM60.9101 75.8106H11.142L36.1345 57.0674L60.9101 75.8106ZM8.51297 95.5403V83.7024H63.7561V95.5403H8.51297ZM63.7561 26.3088L36.1345 47.2025L8.51297 26.4864V8.72964H63.7561V26.3088Z" fill="#DB7267"/>
</svg>
