<svg width="40" height="34" viewBox="0 0 40 34" fill="none" xmlns="http://www.w3.org/2000/svg">
<path d="M36.5 0.5H3.5C2.70435 0.5 1.94129 0.81607 1.37868 1.37868C0.81607 1.94129 0.5 2.70435 0.5 3.5V30.5C0.5 31.2956 0.81607 32.0587 1.37868 32.6213C1.94129 33.1839 2.70435 33.5 3.5 33.5H36.5C37.2956 33.5 38.0587 33.1839 38.6213 32.6213C39.1839 32.0587 39.5 31.2956 39.5 30.5V3.5C39.5 2.70435 39.1839 1.94129 38.6213 1.37868C38.0587 0.81607 37.2956 0.5 36.5 0.5ZM36.5 3.5V6.5H3.5V3.5H36.5ZM36.5 30.5H3.5V9.5H36.5V30.5ZM29 14C29 16.3869 28.0518 18.6761 26.364 20.364C24.6761 22.0518 22.3869 23 20 23C17.6131 23 15.3239 22.0518 13.636 20.364C11.9482 18.6761 11 16.3869 11 14C11 13.6022 11.158 13.2206 11.4393 12.9393C11.7206 12.658 12.1022 12.5 12.5 12.5C12.8978 12.5 13.2794 12.658 13.5607 12.9393C13.842 13.2206 14 13.6022 14 14C14 15.5913 14.6321 17.1174 15.7574 18.2426C16.8826 19.3679 18.4087 20 20 20C21.5913 20 23.1174 19.3679 24.2426 18.2426C25.3679 17.1174 26 15.5913 26 14C26 13.6022 26.158 13.2206 26.4393 12.9393C26.7206 12.658 27.1022 12.5 27.5 12.5C27.8978 12.5 28.2794 12.658 28.5607 12.9393C28.842 13.2206 29 13.6022 29 14Z" fill="#20422A"/>
</svg>
