<svg width="31" height="31" viewBox="0 0 31 31" fill="none" xmlns="http://www.w3.org/2000/svg">
<path d="M20.1427 4.00453C18.4089 -0.168176 12.5911 -0.16818 10.8573 4.00453L9.94849 6.19182C9.58662 7.06274 8.79808 7.65495 7.89678 7.757L5.36063 8.04416C1.07338 8.5296 -0.637388 13.8667 2.44523 16.8469L4.59856 18.9288C5.23473 19.5438 5.52077 20.4562 5.34534 21.3435L4.82544 23.9731C3.96224 28.3391 8.66687 31.7471 12.4578 29.3134L14.1586 28.2214C14.9795 27.6945 16.0205 27.6945 16.8414 28.2214L18.5422 29.3134C22.3331 31.7471 27.0378 28.3391 26.1746 23.9731L25.6547 21.3435C25.4792 20.4562 25.7653 19.5438 26.4014 18.9288L28.5548 16.8469C31.6374 13.8667 29.9266 8.5296 25.6394 8.04416L23.1032 7.757C22.2019 7.65495 21.4134 7.06274 21.0515 6.19182L20.1427 4.00453Z" fill="#20422A"/>
</svg>
